<svg width="24" height="24" viewBox="0 0 24 24" fill="none" xmlns="http://www.w3.org/2000/svg">
<rect x="0.6" y="0.6" width="22.8" height="22.8" rx="3.4" stroke="black" stroke-width="1.2"/>
<path d="M16.2824 12.5325C16.2126 12.4622 16.1297 12.4064 16.0383 12.3683C15.9469 12.3303 15.8489 12.3107 15.7499 12.3107C15.6509 12.3107 15.5528 12.3303 15.4614 12.3683C15.37 12.4064 15.2871 12.4622 15.2174 12.5325L12.7499 15V7.5C12.7499 7.30109 12.6708 7.11032 12.5302 6.96967C12.3895 6.82902 12.1988 6.75 11.9999 6.75C11.8009 6.75 11.6102 6.82902 11.4695 6.96967C11.3289 7.11032 11.2499 7.30109 11.2499 7.5V15L8.78236 12.5325C8.71264 12.4622 8.62969 12.4064 8.53829 12.3683C8.4469 12.3303 8.34887 12.3107 8.24986 12.3107C8.15085 12.3107 8.05282 12.3303 7.96143 12.3683C7.87003 12.4064 7.78708 12.4622 7.71736 12.5325C7.57767 12.673 7.49927 12.8631 7.49927 13.0613C7.49927 13.2594 7.57767 13.4495 7.71736 13.59L10.9424 16.8075C11.2224 17.0892 11.6027 17.2483 11.9999 17.25V17.25C12.3944 17.2464 12.7717 17.0874 13.0499 16.8075L16.2749 13.59C16.4156 13.4505 16.4953 13.2609 16.4967 13.0628C16.4981 12.8647 16.4211 12.674 16.2824 12.5325V12.5325Z" fill="black"/>
</svg>
