<svg width="24" height="24" viewBox="0 0 24 24" fill="none" xmlns="http://www.w3.org/2000/svg">
<rect x="0.6" y="0.6" width="22.8" height="22.8" rx="11.4" stroke="#F56C56" stroke-width="1.2"/>
<path d="M12.825 17.2496C12.6767 17.249 12.5318 17.2044 12.4089 17.1215C12.2859 17.0386 12.1902 16.921 12.134 16.7838C12.0778 16.6465 12.0636 16.4956 12.0931 16.3503C12.1227 16.2049 12.1947 16.0716 12.3 15.9671L15.75 12.5321C15.8203 12.4624 15.8761 12.3794 15.9142 12.2881C15.9522 12.1967 15.9718 12.0986 15.9718 11.9996C15.9718 11.9006 15.9522 11.8026 15.9142 11.7112C15.8761 11.6198 15.8203 11.5368 15.75 11.4671L12.3 8.03212C12.2297 7.9624 12.1739 7.87944 12.1358 7.78805C12.0977 7.69666 12.0781 7.59863 12.0781 7.49962C12.0781 7.40061 12.0977 7.30258 12.1358 7.21119C12.1739 7.11979 12.2297 7.03684 12.3 6.96712C12.4405 6.82743 12.6306 6.74902 12.8287 6.74902C13.0269 6.74902 13.217 6.82743 13.3575 6.96712L16.8 10.4096C17.2213 10.8315 17.458 11.4034 17.458 11.9996C17.458 12.5959 17.2213 13.1677 16.8 13.5896L13.3575 17.0321C13.2874 17.1016 13.2043 17.1566 13.1129 17.1939C13.0215 17.2313 12.9237 17.2502 12.825 17.2496Z" fill="#F56C56"/>
<path d="M7.57498 17.2496C7.42665 17.249 7.28184 17.2044 7.15885 17.1215C7.03586 17.0386 6.94022 16.921 6.88403 16.7838C6.82784 16.6465 6.81361 16.4956 6.84315 16.3503C6.87269 16.2049 6.94466 16.0716 7.04998 15.9671L11.0175 11.9996L7.04998 8.03212C6.97968 7.9624 6.92389 7.87944 6.88581 7.78805C6.84774 7.69666 6.82813 7.59863 6.82813 7.49962C6.82813 7.40061 6.84774 7.30258 6.88581 7.21119C6.92389 7.11979 6.97968 7.03684 7.04998 6.96712C7.1905 6.82743 7.38059 6.74902 7.57873 6.74902C7.77687 6.74902 7.96696 6.82743 8.10748 6.96712L12.6075 11.4671C12.6778 11.5368 12.7336 11.6198 12.7716 11.7112C12.8097 11.8026 12.8293 11.9006 12.8293 11.9996C12.8293 12.0986 12.8097 12.1967 12.7716 12.2881C12.7336 12.3794 12.6778 12.4624 12.6075 12.5321L8.10748 17.0321C8.0374 17.1016 7.95429 17.1566 7.86291 17.1939C7.77153 17.2313 7.67369 17.2502 7.57498 17.2496Z" fill="#F56C56"/>
</svg>
