<svg width="24" height="24" viewBox="0 0 24 24" fill="none" xmlns="http://www.w3.org/2000/svg">
<rect x="0.6" y="0.6" width="22.8" height="22.8" rx="3.4" stroke="black" stroke-width="1.2"/>
<path d="M16.2826 10.4105L13.0576 7.19302C12.7766 6.91365 12.3964 6.75684 12.0001 6.75684C11.6038 6.75684 11.2237 6.91365 10.9426 7.19302L7.71761 10.4105C7.57792 10.551 7.49951 10.7411 7.49951 10.9393C7.49951 11.1374 7.57792 11.3275 7.71761 11.468C7.78733 11.5383 7.87028 11.5941 7.96167 11.6322C8.05307 11.6703 8.1511 11.6899 8.25011 11.6899C8.34912 11.6899 8.44714 11.6703 8.53854 11.6322C8.62993 11.5941 8.71288 11.5383 8.78261 11.468L11.2501 9.00052V17.2505C11.2501 17.4494 11.3291 17.6402 11.4698 17.7809C11.6104 17.9215 11.8012 18.0005 12.0001 18.0005C12.199 18.0005 12.3898 17.9215 12.5304 17.7809C12.6711 17.6402 12.7501 17.4494 12.7501 17.2505V9.00052L15.2176 11.468C15.3578 11.6093 15.5484 11.689 15.7475 11.6897C15.9465 11.6904 16.1376 11.612 16.2789 11.4718C16.4201 11.3315 16.4998 11.1409 16.5005 10.9419C16.5012 10.7429 16.4228 10.5518 16.2826 10.4105V10.4105Z" fill="black"/>
</svg>
