<svg width="24" height="24" viewBox="0 0 24 24" fill="none" xmlns="http://www.w3.org/2000/svg">
<rect x="0.6" y="0.6" width="22.8" height="22.8" rx="3.4" stroke="black" stroke-width="1.2"/>
<path d="M6.934 17.5C6.81267 17.5 6.752 17.4393 6.752 17.318C6.752 17.1687 6.81267 17.094 6.934 17.094C7.26067 17.094 7.51733 17.038 7.704 16.926C7.89067 16.8047 8.05867 16.5807 8.208 16.254C8.28267 16.1047 8.39 15.8527 8.53 15.498C8.67933 15.1433 8.84733 14.7187 9.034 14.224C9.23 13.7293 9.43533 13.202 9.65 12.642C9.86467 12.082 10.0793 11.522 10.294 10.962C10.5087 10.402 10.7047 9.884 10.882 9.408C11.0687 8.92267 11.2227 8.50733 11.344 8.162C11.4747 7.81667 11.5633 7.58333 11.61 7.462C11.6567 7.34067 11.708 7.26133 11.764 7.224C11.8293 7.18667 11.9367 7.168 12.086 7.168C12.2353 7.168 12.3427 7.18667 12.408 7.224C12.4733 7.26133 12.5293 7.34067 12.576 7.462C12.6507 7.64867 12.7673 7.952 12.926 8.372C13.094 8.792 13.2853 9.27733 13.5 9.828C13.7147 10.3787 13.9387 10.9573 14.172 11.564C14.4053 12.1613 14.6293 12.7447 14.844 13.314C15.068 13.8833 15.2687 14.4013 15.446 14.868C15.6233 15.3253 15.7633 15.68 15.866 15.932C16.034 16.3613 16.2113 16.6647 16.398 16.842C16.594 17.01 16.7807 17.094 16.958 17.094C17.0793 17.094 17.14 17.1687 17.14 17.318C17.14 17.4393 17.0793 17.5 16.958 17.5C16.8647 17.5 16.6733 17.5 16.384 17.5C16.0947 17.4907 15.7073 17.486 15.222 17.486C14.8207 17.486 14.438 17.4907 14.074 17.5C13.71 17.5 13.4813 17.5 13.388 17.5C13.2667 17.5 13.206 17.4393 13.206 17.318C13.206 17.1687 13.2667 17.094 13.388 17.094C13.6867 17.094 13.892 17.0473 14.004 16.954C14.1253 16.8513 14.186 16.7347 14.186 16.604C14.186 16.464 14.1627 16.3473 14.116 16.254C14.1067 16.2353 14.0787 16.156 14.032 16.016C13.9853 15.8667 13.9247 15.6893 13.85 15.484C13.7847 15.2693 13.7147 15.0547 13.64 14.84C13.5653 14.616 13.5 14.42 13.444 14.252C13.4067 14.1493 13.3693 14.0887 13.332 14.07C13.2947 14.0513 13.2433 14.042 13.178 14.042H9.734C9.68733 14.042 9.65 14.0467 9.622 14.056C9.594 14.0653 9.57067 14.1027 9.552 14.168C9.50533 14.364 9.43533 14.5973 9.342 14.868C9.258 15.1293 9.18333 15.386 9.118 15.638C9.05267 15.8807 9.02 16.0813 9.02 16.24C9.02 16.5853 9.104 16.814 9.272 16.926C9.44933 17.038 9.692 17.094 10 17.094C10.1213 17.094 10.182 17.1687 10.182 17.318C10.182 17.4393 10.1213 17.5 10 17.5C9.90667 17.5 9.72933 17.5 9.468 17.5C9.216 17.4907 8.88467 17.486 8.474 17.486C8.11 17.486 7.788 17.4907 7.508 17.5C7.228 17.5 7.03667 17.5 6.934 17.5ZM9.944 13.58H12.982C13.0193 13.58 13.0567 13.5753 13.094 13.566C13.1407 13.5473 13.15 13.4913 13.122 13.398C13.0473 13.174 12.954 12.9033 12.842 12.586C12.73 12.2593 12.6087 11.9187 12.478 11.564C12.3473 11.2093 12.2213 10.8687 12.1 10.542C11.988 10.2153 11.8853 9.93067 11.792 9.688C11.708 9.44533 11.652 9.282 11.624 9.198C11.6053 9.15133 11.5773 9.12333 11.54 9.114C11.512 9.10467 11.4887 9.12333 11.47 9.17C11.4513 9.23533 11.3907 9.39867 11.288 9.66C11.1853 9.912 11.0593 10.22 10.91 10.584C10.77 10.9387 10.6253 11.3073 10.476 11.69C10.3267 12.0633 10.1913 12.404 10.07 12.712C9.958 13.0107 9.87867 13.23 9.832 13.37C9.79467 13.51 9.832 13.58 9.944 13.58Z" fill="black"/>
</svg>
