<svg width="24" height="24" viewBox="0 0 24 24" fill="none" xmlns="http://www.w3.org/2000/svg">
<rect x="0.6" y="0.6" width="22.8" height="22.8" rx="3.4" stroke="black" stroke-width="1.2"/>
<path d="M7.644 17.5C7.51333 17.5 7.448 17.4347 7.448 17.304C7.448 17.1733 7.51333 17.108 7.644 17.108C8.12933 17.108 8.456 17.038 8.624 16.898C8.792 16.7487 8.876 16.534 8.876 16.254V8.568C8.876 8.29733 8.79667 8.092 8.638 7.952C8.47933 7.80267 8.13867 7.728 7.616 7.728C7.49467 7.728 7.434 7.66267 7.434 7.532C7.434 7.40133 7.49467 7.336 7.616 7.336C7.7 7.336 7.938 7.34533 8.33 7.364C8.73133 7.37333 9.198 7.378 9.73 7.378C10.346 7.378 10.8313 7.37333 11.186 7.364C11.55 7.34533 11.8253 7.336 12.012 7.336C12.6 7.336 13.174 7.42933 13.734 7.616C14.294 7.79333 14.798 8.08267 15.246 8.484C15.694 8.88533 16.0487 9.41267 16.31 10.066C16.5807 10.71 16.716 11.4987 16.716 12.432C16.716 13.328 16.5807 14.098 16.31 14.742C16.0487 15.386 15.6893 15.9133 15.232 16.324C14.784 16.7253 14.28 17.024 13.72 17.22C13.1693 17.4067 12.6 17.5 12.012 17.5C11.8253 17.5 11.55 17.4953 11.186 17.486C10.822 17.4767 10.3273 17.472 9.702 17.472C9.17933 17.472 8.72667 17.4767 8.344 17.486C7.97067 17.4953 7.73733 17.5 7.644 17.5ZM10.864 17.066H11.69C12.0727 17.066 12.446 16.996 12.81 16.856C13.174 16.7067 13.5053 16.4593 13.804 16.114C14.1027 15.7593 14.3407 15.2833 14.518 14.686C14.6953 14.0887 14.784 13.3373 14.784 12.432C14.784 11.4893 14.7047 10.7147 14.546 10.108C14.3967 9.50133 14.1867 9.03 13.916 8.694C13.6453 8.34867 13.3373 8.11067 12.992 7.98C12.656 7.84 12.3013 7.77 11.928 7.77H10.864C10.7987 7.77 10.7333 7.78867 10.668 7.826C10.612 7.854 10.584 7.93333 10.584 8.064V16.786C10.584 16.9913 10.6773 17.0847 10.864 17.066Z" fill="black"/>
</svg>
