<svg width="24" height="24" viewBox="0 0 24 24" fill="none" xmlns="http://www.w3.org/2000/svg">
<rect x="0.6" y="0.6" width="22.8" height="22.8" rx="3.4" stroke="black" stroke-width="1.2"/>
<path d="M12.288 17.668C11.8587 17.668 11.4527 17.612 11.07 17.5C10.6873 17.3973 10.356 17.2853 10.076 17.164C9.80533 17.0427 9.614 16.9587 9.502 16.912C9.40867 16.8653 9.31067 16.8467 9.208 16.856C9.10533 16.8653 9.01667 16.912 8.942 16.996C8.93267 17.0053 8.928 17.01 8.928 17.01C8.91867 17.01 8.89533 17.0287 8.858 17.066C8.83 17.094 8.732 17.1873 8.564 17.346C8.47067 17.4393 8.382 17.4673 8.298 17.43C8.214 17.3833 8.172 17.3087 8.172 17.206V14.476C8.172 14.364 8.23267 14.2987 8.354 14.28C8.48467 14.2613 8.564 14.294 8.592 14.378C8.76933 14.9007 9.04 15.3673 9.404 15.778C9.768 16.1887 10.202 16.5107 10.706 16.744C11.2193 16.968 11.77 17.08 12.358 17.08C12.8433 17.08 13.2353 16.982 13.534 16.786C13.842 16.59 14.0707 16.3427 14.22 16.044C14.3693 15.736 14.444 15.4327 14.444 15.134C14.444 14.7327 14.332 14.4107 14.108 14.168C13.884 13.916 13.59 13.7153 13.226 13.566C12.862 13.4073 12.456 13.272 12.008 13.16C11.5693 13.048 11.1307 12.9267 10.692 12.796C10.2533 12.6653 9.852 12.4973 9.488 12.292C9.124 12.0773 8.83 11.7973 8.606 11.452C8.382 11.0973 8.27 10.6493 8.27 10.108C8.27 9.464 8.424 8.92733 8.732 8.498C9.04933 8.05933 9.46933 7.728 9.992 7.504C10.5147 7.28 11.0793 7.168 11.686 7.168C11.994 7.168 12.3067 7.20533 12.624 7.28C12.9413 7.34533 13.2353 7.42933 13.506 7.532C13.7767 7.62533 13.982 7.714 14.122 7.798C14.346 7.91933 14.5187 7.91933 14.64 7.798C14.7333 7.70467 14.8033 7.644 14.85 7.616C14.906 7.57867 14.934 7.56 14.934 7.56C15.0087 7.48533 15.088 7.47133 15.172 7.518C15.256 7.55533 15.298 7.63467 15.298 7.756V10.15C15.298 10.2713 15.2373 10.346 15.116 10.374C15.004 10.402 14.9247 10.3553 14.878 10.234C14.6727 9.77667 14.4113 9.352 14.094 8.96C13.786 8.568 13.4267 8.25067 13.016 8.008C12.6147 7.76533 12.1713 7.644 11.686 7.644C11.2847 7.644 10.93 7.73267 10.622 7.91C10.314 8.078 10.0713 8.302 9.894 8.582C9.71667 8.862 9.628 9.17467 9.628 9.52C9.628 9.912 9.74 10.2247 9.964 10.458C10.1973 10.6913 10.5007 10.878 10.874 11.018C11.2473 11.158 11.658 11.2793 12.106 11.382C12.5633 11.4847 13.016 11.6013 13.464 11.732C13.912 11.8533 14.3227 12.0213 14.696 12.236C15.0693 12.4507 15.368 12.74 15.592 13.104C15.8253 13.4587 15.942 13.9253 15.942 14.504C15.942 15.1667 15.7833 15.736 15.466 16.212C15.1487 16.688 14.7147 17.052 14.164 17.304C13.6133 17.5467 12.988 17.668 12.288 17.668Z" fill="black"/>
</svg>
