<svg width="24" height="24" viewBox="0 0 24 24" fill="none" xmlns="http://www.w3.org/2000/svg">
<rect x="0.6" y="0.6" width="22.8" height="22.8" rx="3.4" stroke="black" stroke-width="1.2"/>
<path d="M9.312 17.668C9.2 17.668 9.11133 17.5653 9.046 17.36C9.02733 17.2947 8.97133 17.1127 8.878 16.814C8.78467 16.506 8.668 16.1233 8.528 15.666C8.39733 15.1993 8.248 14.6907 8.08 14.14C7.92133 13.5893 7.758 13.034 7.59 12.474C7.43133 11.914 7.27733 11.382 7.128 10.878C6.97867 10.374 6.85267 9.94 6.75 9.576C6.64733 9.20267 6.57267 8.93667 6.526 8.778C6.414 8.36733 6.26467 8.09667 6.078 7.966C5.89133 7.826 5.67667 7.756 5.434 7.756C5.38733 7.756 5.34533 7.73733 5.308 7.7C5.27067 7.65333 5.252 7.60667 5.252 7.56C5.252 7.41067 5.31267 7.336 5.434 7.336C5.53667 7.336 5.70933 7.34533 5.952 7.364C6.19467 7.38267 6.49333 7.392 6.848 7.392C7.11867 7.392 7.394 7.38733 7.674 7.378C7.96333 7.36867 8.21533 7.35933 8.43 7.35C8.64467 7.34067 8.78 7.336 8.836 7.336C8.91067 7.336 8.962 7.35933 8.99 7.406C9.02733 7.45267 9.046 7.504 9.046 7.56C9.046 7.60667 9.02733 7.65333 8.99 7.7C8.95267 7.73733 8.90133 7.756 8.836 7.756C8.62133 7.756 8.45333 7.84467 8.332 8.022C8.21067 8.19 8.19667 8.46533 8.29 8.848C8.318 8.96 8.36933 9.17 8.444 9.478C8.51867 9.77667 8.60733 10.1313 8.71 10.542C8.81267 10.9433 8.92 11.3633 9.032 11.802C9.15333 12.2313 9.26533 12.642 9.368 13.034C9.48 13.426 9.57333 13.762 9.648 14.042C9.732 14.322 9.79267 14.504 9.83 14.588C9.89533 14.728 9.942 14.742 9.97 14.63C9.98867 14.574 10.026 14.4247 10.082 14.182C10.1473 13.9393 10.2267 13.636 10.32 13.272C10.4133 12.908 10.5113 12.5253 10.614 12.124C10.7167 11.7133 10.8147 11.312 10.908 10.92C11.0107 10.528 11.104 10.1827 11.188 9.884C11.272 9.576 11.3327 9.34733 11.37 9.198C11.482 8.79667 11.44 8.456 11.244 8.176C11.048 7.896 10.7633 7.756 10.39 7.756C10.3247 7.756 10.2733 7.73733 10.236 7.7C10.1987 7.65333 10.18 7.60667 10.18 7.56C10.18 7.41067 10.25 7.336 10.39 7.336C10.446 7.336 10.572 7.34067 10.768 7.35C10.964 7.35933 11.1927 7.36867 11.454 7.378C11.7153 7.38733 11.9673 7.392 12.21 7.392C12.4807 7.392 12.7467 7.38733 13.008 7.378C13.2787 7.36867 13.5073 7.35933 13.694 7.35C13.89 7.34067 14.0113 7.336 14.058 7.336C14.1887 7.336 14.254 7.41067 14.254 7.56C14.254 7.60667 14.24 7.65333 14.212 7.7C14.184 7.73733 14.1327 7.756 14.058 7.756C13.6847 7.756 13.4327 7.83533 13.302 7.994C13.1807 8.14333 13.1667 8.42333 13.26 8.834C13.288 8.93667 13.3393 9.14667 13.414 9.464C13.498 9.772 13.596 10.1407 13.708 10.57C13.82 10.9993 13.9367 11.4427 14.058 11.9C14.1793 12.3573 14.296 12.7867 14.408 13.188C14.52 13.5893 14.6087 13.9207 14.674 14.182C14.7487 14.434 14.7907 14.5693 14.8 14.588C14.8187 14.644 14.842 14.6767 14.87 14.686C14.9073 14.6953 14.9307 14.6767 14.94 14.63C14.9493 14.546 14.982 14.3733 15.038 14.112C15.1033 13.8507 15.178 13.5427 15.262 13.188C15.3553 12.824 15.4487 12.4413 15.542 12.04C15.6447 11.6387 15.7427 11.2513 15.836 10.878C15.9293 10.5047 16.0133 10.178 16.088 9.898C16.1627 9.60867 16.214 9.39867 16.242 9.268C16.3447 8.85733 16.368 8.54467 16.312 8.33C16.2653 8.106 16.1627 7.95667 16.004 7.882C15.8547 7.798 15.6773 7.756 15.472 7.756C15.4067 7.756 15.3553 7.73733 15.318 7.7C15.2807 7.65333 15.262 7.60667 15.262 7.56C15.262 7.41067 15.332 7.336 15.472 7.336C15.5653 7.336 15.7567 7.34533 16.046 7.364C16.3353 7.38267 16.6107 7.392 16.872 7.392C17.3387 7.392 17.684 7.38267 17.908 7.364C18.1413 7.34533 18.3047 7.336 18.398 7.336C18.4633 7.336 18.51 7.35933 18.538 7.406C18.5753 7.45267 18.594 7.504 18.594 7.56C18.594 7.60667 18.5753 7.65333 18.538 7.7C18.5007 7.73733 18.454 7.756 18.398 7.756C17.9687 7.756 17.642 7.86333 17.418 8.078C17.194 8.28333 17.012 8.60533 16.872 9.044C16.8533 9.10933 16.7973 9.30067 16.704 9.618C16.62 9.93533 16.5127 10.3367 16.382 10.822C16.2513 11.298 16.1113 11.8207 15.962 12.39C15.8127 12.95 15.6633 13.5147 15.514 14.084C15.3647 14.644 15.2247 15.162 15.094 15.638C14.9633 16.114 14.856 16.506 14.772 16.814C14.6973 17.122 14.6507 17.2993 14.632 17.346C14.604 17.4393 14.5713 17.514 14.534 17.57C14.4967 17.6353 14.4127 17.668 14.282 17.668C14.2167 17.668 14.1653 17.6447 14.128 17.598C14.1 17.5607 14.0627 17.4767 14.016 17.346C13.9973 17.29 13.9413 17.1173 13.848 16.828C13.764 16.5387 13.6567 16.17 13.526 15.722C13.3953 15.274 13.2553 14.7933 13.106 14.28C12.9567 13.7573 12.8073 13.2393 12.658 12.726C12.5087 12.2127 12.3687 11.746 12.238 11.326C12.1167 10.8967 12.014 10.5513 11.93 10.29C11.8553 10.0287 11.8133 9.898 11.804 9.898C11.804 9.898 11.7993 9.898 11.79 9.898C11.734 9.87 11.6967 9.87933 11.678 9.926C11.6873 9.87 11.664 9.94 11.608 10.136C11.552 10.332 11.4727 10.6167 11.37 10.99C11.2673 11.354 11.1507 11.774 11.02 12.25C10.8987 12.7167 10.768 13.2067 10.628 13.72C10.4973 14.224 10.3713 14.7047 10.25 15.162C10.0913 15.7407 9.956 16.24 9.844 16.66C9.732 17.0707 9.66667 17.3133 9.648 17.388C9.62 17.472 9.58733 17.5373 9.55 17.584C9.522 17.64 9.44267 17.668 9.312 17.668Z" fill="black"/>
</svg>
