<svg width="24" height="24" viewBox="0 0 24 24" fill="none" xmlns="http://www.w3.org/2000/svg">
<rect x="0.6" y="0.6" width="22.8" height="22.8" rx="3.4" stroke="black" stroke-width="1.2"/>
<path d="M17.25 11.2496H9.75L12.2175 8.78212C12.2878 8.71239 12.3436 8.62944 12.3817 8.53805C12.4197 8.44665 12.4393 8.34863 12.4393 8.24962C12.4393 8.15061 12.4197 8.05258 12.3817 7.96118C12.3436 7.86979 12.2878 7.78684 12.2175 7.71712C12.077 7.57743 11.8869 7.49902 11.6888 7.49902C11.4906 7.49902 11.3005 7.57743 11.16 7.71712L7.9425 10.9421C7.66081 11.2221 7.50167 11.6024 7.5 11.9996V11.9996C7.50365 12.3942 7.66263 12.7714 7.9425 13.0496L11.16 16.2746C11.2299 16.344 11.3128 16.399 11.404 16.4364C11.4952 16.4738 11.5929 16.4929 11.6914 16.4925C11.7899 16.4922 11.8875 16.4724 11.9784 16.4344C12.0693 16.3964 12.1518 16.3408 12.2213 16.2709C12.2907 16.2009 12.3457 16.118 12.3831 16.0268C12.4204 15.9357 12.4395 15.838 12.4392 15.7395C12.4388 15.6409 12.4191 15.5434 12.381 15.4525C12.343 15.3616 12.2874 15.279 12.2175 15.2096L9.75 12.7496H17.25C17.4489 12.7496 17.6397 12.6706 17.7803 12.5299C17.921 12.3893 18 12.1985 18 11.9996C18 11.8007 17.921 11.6099 17.7803 11.4693C17.6397 11.3286 17.4489 11.2496 17.25 11.2496Z" fill="black"/>
</svg>
