<svg width="24" height="24" viewBox="0 0 24 24" fill="none" xmlns="http://www.w3.org/2000/svg">
<rect x="0.6" y="0.6" width="22.8" height="22.8" rx="3.4" stroke="black" stroke-width="1.2"/>
<path d="M16.5 11.9999C16.4964 11.6053 16.3374 11.2281 16.0575 10.9499L12.84 7.72493C12.6995 7.58524 12.5094 7.50684 12.3112 7.50684C12.1131 7.50684 11.923 7.58524 11.7825 7.72493C11.7122 7.79465 11.6564 7.8776 11.6183 7.969C11.5803 8.06039 11.5607 8.15842 11.5607 8.25743C11.5607 8.35644 11.5803 8.45447 11.6183 8.54586C11.6564 8.63726 11.7122 8.72021 11.7825 8.78993L14.25 11.2499H6.75C6.55109 11.2499 6.36032 11.3289 6.21967 11.4696C6.07902 11.6102 6 11.801 6 11.9999C6 12.1988 6.07902 12.3896 6.21967 12.5303C6.36032 12.6709 6.55109 12.7499 6.75 12.7499H14.25L11.7825 15.2174C11.6413 15.3577 11.5615 15.5482 11.5608 15.7473C11.5601 15.9463 11.6385 16.1374 11.7787 16.2787C11.919 16.4199 12.1096 16.4996 12.3086 16.5003C12.5076 16.501 12.6988 16.4227 12.84 16.2824L16.0575 13.0574C16.3392 12.7774 16.4983 12.3971 16.5 11.9999V11.9999Z" fill="black"/>
</svg>
