<svg width="56" height="24" viewBox="0 0 56 24" fill="none" xmlns="http://www.w3.org/2000/svg">
<rect x="0.6" y="0.6" width="54.8" height="22.8" rx="3.4" stroke="black" stroke-width="1.2"/>
<path d="M12.85 15.168C12.514 15.168 12.1733 15.1167 11.828 15.014C11.4827 14.9207 11.1933 14.8273 10.96 14.734C10.848 14.6873 10.7453 14.6687 10.652 14.678C10.568 14.6873 10.4887 14.7153 10.414 14.762C10.358 14.7993 10.3067 14.8413 10.26 14.888C10.2227 14.9253 10.1807 14.9673 10.134 15.014C10.0407 15.1073 9.94267 15.1353 9.84 15.098C9.74667 15.0607 9.7 14.9767 9.7 14.846V12.9C9.7 12.7787 9.75133 12.7087 9.854 12.69C9.966 12.6713 10.05 12.7087 10.106 12.802C10.806 13.95 11.73 14.524 12.878 14.524C13.326 14.524 13.704 14.4307 14.012 14.244C14.3293 14.0573 14.488 13.782 14.488 13.418C14.488 13.1753 14.376 12.9887 14.152 12.858C13.928 12.7273 13.6387 12.6247 13.284 12.55C12.9293 12.466 12.556 12.3773 12.164 12.284C11.772 12.1907 11.3987 12.0647 11.044 11.906C10.6893 11.7473 10.4 11.528 10.176 11.248C9.952 10.9587 9.84 10.576 9.84 10.1C9.84 9.78267 9.924 9.47933 10.092 9.19C10.2693 8.90067 10.5353 8.66733 10.89 8.49C11.2447 8.30333 11.6927 8.21 12.234 8.21C12.542 8.21 12.8453 8.24733 13.144 8.322C13.452 8.38733 13.718 8.46667 13.942 8.56C14.2033 8.66267 14.39 8.66733 14.502 8.574C14.5487 8.53667 14.5953 8.49933 14.642 8.462C14.698 8.41533 14.7493 8.37333 14.796 8.336C14.88 8.28 14.9547 8.26133 15.02 8.28C15.0947 8.28933 15.132 8.35467 15.132 8.476V10.226C15.132 10.3473 15.076 10.422 14.964 10.45C14.852 10.4687 14.7727 10.4313 14.726 10.338C14.4927 9.78733 14.1613 9.39067 13.732 9.148C13.3027 8.90533 12.8733 8.784 12.444 8.784C11.9587 8.784 11.59 8.89133 11.338 9.106C11.086 9.31133 10.96 9.54933 10.96 9.82C10.96 10.044 11.072 10.2167 11.296 10.338C11.52 10.45 11.8047 10.5433 12.15 10.618C12.5047 10.6833 12.878 10.758 13.27 10.842C13.662 10.9167 14.0307 11.0333 14.376 11.192C14.7307 11.3507 15.02 11.5793 15.244 11.878C15.468 12.1673 15.58 12.5593 15.58 13.054C15.58 13.446 15.468 13.8053 15.244 14.132C15.02 14.4493 14.7027 14.7013 14.292 14.888C13.8813 15.0747 13.4007 15.168 12.85 15.168ZM16.6547 17.898C16.5147 17.898 16.4447 17.8233 16.4447 17.674C16.4447 17.5153 16.5147 17.436 16.6547 17.436C17.0094 17.436 17.2474 17.3613 17.3687 17.212C17.4994 17.0627 17.5647 16.82 17.5647 16.484V9.624C17.5647 9.36267 17.5321 9.19 17.4667 9.106C17.4014 9.022 17.3034 8.966 17.1727 8.938C17.1074 8.91933 17.0094 8.90533 16.8787 8.896C16.7574 8.87733 16.6687 8.86333 16.6127 8.854C16.4821 8.83533 16.4167 8.76067 16.4167 8.63C16.4167 8.48067 16.4867 8.406 16.6267 8.406C16.6547 8.406 16.7667 8.406 16.9627 8.406C17.1587 8.39667 17.3781 8.392 17.6207 8.392C17.8727 8.38267 18.1014 8.378 18.3067 8.378C18.5121 8.378 18.6427 8.378 18.6987 8.378C18.9321 8.378 19.0487 8.48533 19.0487 8.7V9.162C19.0487 9.22733 19.0674 9.26467 19.1047 9.274C19.1421 9.274 19.1794 9.25067 19.2167 9.204C19.3007 9.10133 19.4174 8.97533 19.5667 8.826C19.7161 8.66733 19.9074 8.52733 20.1407 8.406C20.3741 8.27533 20.6494 8.21 20.9667 8.21C21.4801 8.21 21.9514 8.31733 22.3807 8.532C22.8194 8.73733 23.1741 9.08267 23.4447 9.568C23.7154 10.0533 23.8507 10.7113 23.8507 11.542C23.8507 12.4007 23.7154 13.1007 23.4447 13.642C23.1834 14.174 22.8334 14.5613 22.3947 14.804C21.9654 15.0467 21.4987 15.168 20.9947 15.168C20.5561 15.168 20.2014 15.0887 19.9307 14.93C19.6694 14.762 19.4454 14.5893 19.2587 14.412C19.1934 14.3467 19.1421 14.328 19.1047 14.356C19.0767 14.3747 19.0627 14.4167 19.0627 14.482V16.526C19.0627 16.862 19.1421 17.0953 19.3007 17.226C19.4594 17.366 19.7114 17.436 20.0567 17.436C20.1967 17.436 20.2667 17.5153 20.2667 17.674C20.2667 17.8233 20.1967 17.898 20.0567 17.898C19.9914 17.898 19.8467 17.8933 19.6227 17.884C19.4081 17.8747 19.1747 17.8653 18.9227 17.856C18.6801 17.856 18.4747 17.856 18.3067 17.856C18.1481 17.856 17.9521 17.856 17.7187 17.856C17.4854 17.8653 17.2661 17.8747 17.0607 17.884C16.8647 17.8933 16.7294 17.898 16.6547 17.898ZM20.6167 14.58C21.0367 14.58 21.3587 14.454 21.5827 14.202C21.8161 13.9407 21.9794 13.5767 22.0727 13.11C22.1661 12.634 22.2127 12.0833 22.2127 11.458C22.2127 10.87 22.1661 10.3987 22.0727 10.044C21.9887 9.68933 21.8721 9.42333 21.7227 9.246C21.5827 9.05933 21.4241 8.938 21.2467 8.882C21.0787 8.81667 20.9061 8.784 20.7287 8.784C20.4767 8.784 20.2201 8.87733 19.9587 9.064C19.7067 9.24133 19.4921 9.498 19.3147 9.834C19.1467 10.1607 19.0627 10.5527 19.0627 11.01V12.83C19.0627 13.0913 19.1234 13.3573 19.2447 13.628C19.3754 13.8987 19.5574 14.1273 19.7907 14.314C20.0241 14.4913 20.2994 14.58 20.6167 14.58ZM26.9315 15.168C26.3248 15.168 25.8208 15.028 25.4195 14.748C25.0275 14.468 24.8315 14.0013 24.8315 13.348C24.8315 12.8067 24.9948 12.3587 25.3215 12.004C25.6482 11.6493 26.1055 11.3833 26.6935 11.206C27.2908 11.0287 27.9862 10.94 28.7795 10.94C28.8822 10.94 28.9335 10.8887 28.9335 10.786V10.394C28.9335 9.89 28.8448 9.49333 28.6675 9.204C28.4902 8.90533 28.2055 8.756 27.8135 8.756C27.4495 8.756 27.1742 8.826 26.9875 8.966C26.8008 9.09667 26.7542 9.26933 26.8475 9.484C26.9968 9.80133 26.9922 10.086 26.8335 10.338C26.6748 10.5807 26.4042 10.702 26.0215 10.702C25.7882 10.702 25.5922 10.6273 25.4335 10.478C25.2748 10.3193 25.1955 10.1 25.1955 9.82C25.1955 9.54 25.3122 9.27867 25.5455 9.036C25.7788 8.79333 26.0962 8.59733 26.4975 8.448C26.9082 8.28933 27.3702 8.21 27.8835 8.21C28.7328 8.21 29.3722 8.39667 29.8015 8.77C30.2308 9.14333 30.4455 9.65667 30.4455 10.31V13.278C30.4455 13.6513 30.4828 13.894 30.5575 14.006C30.6415 14.1087 30.7442 14.16 30.8655 14.16C30.9588 14.16 31.0382 14.146 31.1035 14.118C31.1782 14.0807 31.2342 14.0433 31.2715 14.006C31.3742 13.9033 31.4768 13.908 31.5795 14.02C31.6262 14.0667 31.6448 14.118 31.6355 14.174C31.6262 14.23 31.6028 14.286 31.5655 14.342C31.4348 14.5567 31.2715 14.7387 31.0755 14.888C30.8888 15.028 30.6602 15.098 30.3895 15.098C30.0815 15.098 29.8155 15.0327 29.5915 14.902C29.3768 14.7713 29.2135 14.5613 29.1015 14.272C29.0735 14.1973 29.0362 14.1647 28.9895 14.174C28.9428 14.1833 28.9008 14.2113 28.8635 14.258C28.6862 14.51 28.4482 14.7247 28.1495 14.902C27.8508 15.0793 27.4448 15.168 26.9315 15.168ZM27.6315 14.328C27.9022 14.328 28.1355 14.2533 28.3315 14.104C28.5275 13.9453 28.6768 13.7587 28.7795 13.544C28.8822 13.3293 28.9335 13.124 28.9335 12.928V11.64C28.9335 11.5 28.8682 11.43 28.7375 11.43C28.0562 11.43 27.5102 11.5607 27.0995 11.822C26.6888 12.074 26.4835 12.5033 26.4835 13.11C26.4835 13.474 26.5535 13.7447 26.6935 13.922C26.8335 14.09 26.9922 14.202 27.1695 14.258C27.3562 14.3047 27.5102 14.328 27.6315 14.328ZM35.6427 15.168C35.036 15.168 34.476 15.056 33.9627 14.832C33.4587 14.608 33.0527 14.2487 32.7447 13.754C32.4367 13.25 32.2827 12.5967 32.2827 11.794C32.2827 11.122 32.4227 10.5153 32.7027 9.974C32.9827 9.43267 33.3887 9.00333 33.9207 8.686C34.4527 8.36867 35.0967 8.21 35.8527 8.21C36.2633 8.21 36.646 8.28933 37.0007 8.448C37.3553 8.59733 37.6447 8.80267 37.8687 9.064C38.0927 9.32533 38.2047 9.62867 38.2047 9.974C38.2047 10.2353 38.116 10.4593 37.9387 10.646C37.7707 10.8233 37.5513 10.912 37.2807 10.912C37.01 10.912 36.8047 10.8467 36.6647 10.716C36.534 10.576 36.4733 10.3987 36.4827 10.184C36.492 10.0533 36.52 9.95067 36.5667 9.876C36.6227 9.792 36.6787 9.70333 36.7347 9.61C36.7907 9.51667 36.8187 9.4 36.8187 9.26C36.8187 9.15733 36.744 9.04533 36.5947 8.924C36.4453 8.80267 36.2307 8.742 35.9507 8.742C35.652 8.742 35.344 8.84 35.0267 9.036C34.7187 9.22267 34.4573 9.54 34.2427 9.988C34.0373 10.4267 33.9347 11.0287 33.9347 11.794C33.9347 12.6713 34.126 13.3247 34.5087 13.754C34.8913 14.1833 35.3673 14.398 35.9367 14.398C36.31 14.398 36.632 14.328 36.9027 14.188C37.1827 14.048 37.416 13.8753 37.6027 13.67C37.7987 13.4553 37.9387 13.2453 38.0227 13.04C38.088 12.8907 38.1953 12.8487 38.3447 12.914C38.494 12.97 38.536 13.0773 38.4707 13.236C38.368 13.5067 38.2093 13.7913 37.9947 14.09C37.7893 14.3887 37.5 14.6453 37.1267 14.86C36.7533 15.0653 36.2587 15.168 35.6427 15.168ZM42.9991 15.168C41.9351 15.168 41.0998 14.8787 40.4931 14.3C39.8958 13.7213 39.5971 12.8907 39.5971 11.808C39.5971 11.1267 39.7324 10.5153 40.0031 9.974C40.2738 9.43267 40.6564 9.00333 41.1511 8.686C41.6551 8.36867 42.2384 8.21 42.9011 8.21C43.4051 8.21 43.8438 8.308 44.2171 8.504C44.5904 8.7 44.8984 8.95667 45.1411 9.274C45.3838 9.59133 45.5658 9.93667 45.6871 10.31C45.8084 10.674 45.8691 11.0333 45.8691 11.388C45.8691 11.5373 45.7758 11.612 45.5891 11.612H41.4451C41.3144 11.612 41.2491 11.6867 41.2491 11.836C41.2491 12.4893 41.3238 12.998 41.4731 13.362C41.6224 13.726 41.8371 13.9827 42.1171 14.132C42.4064 14.2813 42.7471 14.356 43.1391 14.356C43.6151 14.356 44.0398 14.2533 44.4131 14.048C44.7958 13.8427 45.1084 13.586 45.3511 13.278C45.4538 13.1567 45.5704 13.138 45.7011 13.222C45.8318 13.306 45.8504 13.418 45.7571 13.558C45.5704 13.838 45.3558 14.0993 45.1131 14.342C44.8798 14.5847 44.5904 14.7853 44.2451 14.944C43.9091 15.0933 43.4938 15.168 42.9991 15.168ZM41.5431 11.066H43.9091C44.0958 11.066 44.1891 10.9773 44.1891 10.8C44.1891 10.1933 44.0911 9.694 43.8951 9.302C43.7084 8.91 43.3678 8.714 42.8731 8.714C42.4531 8.714 42.1171 8.90533 41.8651 9.288C41.6224 9.66133 41.4404 10.1747 41.3191 10.828C41.2911 10.9867 41.3658 11.066 41.5431 11.066Z" fill="black"/>
</svg>
